<?xml version="1.0" encoding="UTF-8"?>
<svg width="204px" height="51px" viewBox="0 0 204 51" version="1.1" xmlns="http://www.w3.org/2000/svg" xmlns:xlink="http://www.w3.org/1999/xlink">
    <!-- Generator: Sketch 52.6 (67491) - http://www.bohemiancoding.com/sketch -->
    <title>cs-logo</title>
    <desc>Created with Sketch.</desc>
    <g id="ABC-UI" stroke="none" stroke-width="1" fill="none" fill-rule="evenodd">
        <g id="menu---Role-Admin" transform="translate(-17.000000, -27.000000)">
            <g id="cs-logo" transform="translate(17.000000, 26.000000)">
                <g id="g8086" transform="translate(8.629927, 19.120103) scale(-1, 1) rotate(-180.000000) translate(-8.629927, -19.120103) translate(0.629927, 4.120103)" fill="#004F7D" fill-rule="nonzero">
                    <path d="M9.71959678,23.3087296 C14.3777135,23.3087296 15.9198896,22.4736341 15.9198896,20.5623183 L15.9198896,18.4420276 L9.71959678,18.4420276 C6.67169323,18.4420276 5.93624374,17.1206638 5.93624374,12.0112295 C5.93624374,6.90179521 6.67169323,5.58043137 9.71959678,5.58043137 L15.9198896,5.58043137 L15.9198896,3.46014072 C15.9198896,1.5472174 14.3777135,0.713729375 9.71959678,0.713729375 C3.519304,0.713729375 0.155513549,4.08465392 0.155513549,12.0112295 C0.155513549,19.9361976 3.519304,23.3087296 9.71959678,23.3087296 Z M8.8780417,24.3158275 C8.4584791,24.3158275 8.21386925,24.4203149 7.82751528,24.9073869 L5.02503154,28.5218475 C4.88490735,28.6962611 4.88490735,28.9044322 4.88490735,29.0442846 L7.05642727,29.0442846 C7.51324831,29.0442846 7.68739109,28.9389934 8.17823073,28.5218475 L9.61430115,27.2020912 L11.0503716,28.5218475 C11.5404012,28.9389934 11.716164,29.0442846 12.1705551,29.0442846 L14.342885,29.0442846 C14.342885,28.9044322 14.342885,28.6962611 14.2035708,28.5218475 L11.3994671,24.9073869 C11.015543,24.4203149 10.7693132,24.3158275 10.3497506,24.3158275 L8.8780417,24.3158275 Z" id="path8088"></path>
                </g>
                <g id="g8090" transform="translate(25.804447, 22.364595) scale(-1, 1) rotate(-180.000000) translate(-25.804447, -22.364595) translate(18.304447, 10.864595)" fill="#004F7D">
                    <path d="M0,20.8974817 C0,22.2188456 0.595325303,22.8787237 1.9261001,22.8787237 L14.1865615,22.8787237 L14.1865615,20.1323124 C14.1865615,18.812556 13.522389,18.1872391 12.1899943,18.1872391 L5.60496748,18.1872391 L5.60496748,14.1885863 L12.9610823,14.1885863 L12.9610823,9.66990779 L5.60496748,9.66990779 L5.60496748,5.32403534 L14.3623242,5.32403534 L14.3623242,2.57842774 C14.3623242,1.25786765 13.6973418,0.631746947 12.364947,0.631746947 L1.9261001,0.631746947 C0.595325303,0.631746947 0,1.29242887 0,2.61298896 L0,20.8974817 Z" id="path8092"></path>
                </g>
                <g id="g8094" transform="translate(42.353210, 22.120103) scale(-1, 1) rotate(-180.000000) translate(-42.353210, -22.120103) translate(33.853210, 10.120103)" fill="#004F7D">
                    <path d="M8.09966399,23.3087296 C12.7577807,23.3087296 15.1755304,22.7862926 15.1755304,20.6314407 L15.1755304,18.4420276 L8.80028492,18.4420276 C7.08315616,18.4420276 6.59393645,17.9895168 6.59393645,17.0861025 C6.59393645,14.4104211 16.3313525,14.9658119 16.3313525,7.45718597 C16.3313525,3.87648286 14.2643182,0.713729375 7.95872983,0.713729375 C3.8254713,0.713729375 0.567786445,1.3744113 0.567786445,3.39021453 L0.567786445,5.58043137 L8.09966399,5.58043137 C9.64022008,5.58043137 10.3756696,6.06669969 10.3756696,7.1445275 C10.3756696,10.0645487 0.673082077,9.50835418 0.673082077,17.2251512 C0.673082077,20.6314407 2.94989762,23.3087296 8.09966399,23.3087296" id="path8096"></path>
                </g>
                <g id="g8098" transform="translate(62.074530, 22.030649) scale(-1, 1) rotate(-180.000000) translate(-62.074530, -22.030649) translate(52.574530, 10.030649)" fill="#004F7D">
                    <path d="M5.66976479,12.8599887 L11.2755422,22.0363945 C11.8004005,22.9406124 12.1154774,23.0450998 12.8517368,23.0450998 L18.1059889,23.0450998 C18.1059889,22.6970764 18.0355218,22.4189791 17.8249305,22.0717594 L11.3808379,12.304598 L18.1416274,1.7706597 C18.3157702,1.49336619 18.4558944,1.14534275 18.4558944,0.797319302 L13.3765951,0.797319302 C12.3252587,0.797319302 12.0109917,0.867245491 11.4148565,1.80602467 L5.66976479,10.9486729 L5.66976479,0.797319302 L0.0647973119,0.797319302 L0.0647973119,21.0630541 C0.0647973119,22.3852217 0.660122615,23.0450998 1.99170737,23.0450998 L5.66976479,23.0450998 L5.66976479,12.8599887 Z" id="path8100"></path>
                </g>
                <g id="g8102" transform="translate(80.754874, 18.920765) scale(-1, 1) rotate(-180.000000) translate(-80.754874, -18.920765) translate(70.754874, 4.420765)" fill="#004F7D" fill-rule="nonzero">
                    <path d="M12.9594624,22.5049803 C13.9055031,22.5049803 14.3598943,22.4004929 14.5712955,21.6007623 L19.790719,1.05693032 C19.8603761,0.743468099 19.8960146,0.431613372 19.8960146,0.188077335 L15.306745,0.188077335 C14.3598943,0.188077335 14.0812658,0.258003524 13.9055031,1.02236911 L12.8185282,5.47192521 L7.59910475,5.47192521 L6.58502682,1.02236911 C6.41007408,0.258003524 6.12820577,0.188077335 5.18297499,0.188077335 L0.629343892,0.188077335 C0.629343892,0.431613372 0.664172447,0.710514378 0.733829557,1.05693032 L5.95325303,21.6007623 C6.16384429,22.4004929 6.61985538,22.5049803 7.56508616,22.5049803 L12.9594624,22.5049803 Z M8.44065984,9.64338406 L11.908126,9.64338406 L10.2282557,16.7686216 L10.0873215,16.7686216 L8.44065984,9.64338406 Z M12.0490601,24.1390026 C11.5930491,23.6519305 11.3832678,23.6165656 10.9288766,23.6165656 L8.7573567,23.6165656 C8.7573567,23.756418 8.7573567,23.964589 8.89505099,24.1390026 L11.6983447,27.754267 C12.0838887,28.2405353 12.3293085,28.3450227 12.7496811,28.3450227 L14.8855625,28.3450227 C15.1309823,28.3450227 15.2719164,28.2405353 15.2719164,28.1006829 C15.2719164,27.9270731 15.2014494,27.8225856 14.921201,27.4761697 L12.0490601,24.1390026 Z" id="path8104"></path>
                </g>
                <g id="g8106" transform="translate(4.167915, 45.086744) scale(-1, 1) rotate(-180.000000) translate(-4.167915, -45.086744) translate(0.667915, 40.086744)" fill="#004F7D">
                    <path d="M3.23986559,9.64499156 C4.78123165,9.64499156 5.83418797,9.61043034 5.83418797,8.84445726 L5.83418797,8.3935539 L3.18802775,8.3935539 C2.39831051,8.3935539 1.89046157,8.04553046 1.89046157,7.4885322 C1.89046157,5.68090003 6.30558841,6.20172957 6.30558841,3.28090463 C6.30558841,1.85585713 5.36116759,0.778029319 2.88915014,0.778029319 C1.45226975,0.778029319 0.120684993,0.778029319 0.120684993,1.52390867 L0.120684993,2.01178449 L3.06410289,2.01178449 C4.11543927,2.01178449 4.60708888,2.37588292 4.60708888,3.15953848 C4.60708888,4.81043954 0.208161364,4.48090233 0.208161364,7.40172727 C0.208161364,8.7930173 1.34778409,9.64499156 3.23986559,9.64499156" id="path8108"></path>
                </g>
                <g id="g8110" transform="translate(11.656540, 45.830880) scale(-1, 1) rotate(-180.000000) translate(-11.656540, -45.830880) translate(8.156540, 39.830880)" fill="#004F7D" fill-rule="nonzero">
                    <path d="M1.6199328,0 L0.0421182527,0 L0.0421182527,11.3023226 L0.831835491,11.3023226 C1.39152227,11.3023226 1.6199328,11.0057391 1.6199328,10.5717145 L1.6199328,10.2928135 C2.10996247,10.8666905 2.89886974,11.3891275 3.89755831,11.3891275 C5.96540253,11.3891275 6.92764261,9.70286151 6.92764261,6.95484266 C6.92764261,4.20762757 5.96540253,2.52136154 3.89755831,2.52136154 C2.89886974,2.52136154 2.10996247,3.04219109 1.6199328,3.61687183 L1.6199328,0 Z M3.37189012,10.1368861 C2.68827848,10.1368861 2.07513391,9.8250314 1.6199328,9.40627802 L1.6199328,4.53877228 C2.07513391,4.12082264 2.68827848,3.80736042 3.37189012,3.80736042 C4.7391134,3.80736042 5.29880018,4.92055319 5.29880018,6.95484266 C5.29880018,8.98993588 4.7391134,10.1368861 3.37189012,10.1368861 Z" id="path8112"></path>
                </g>
                <g id="g8114" transform="translate(20.204366, 44.698210) scale(-1, 1) rotate(-180.000000) translate(-20.204366, -44.698210) translate(16.204366, 39.698210)" fill="#004F7D" fill-rule="nonzero">
                    <path d="M0,4.82249578 C0,7.2570524 0.805916567,9.25678065 3.55656246,9.25678065 C6.32583757,9.25678065 7.11393488,7.2570524 7.11393488,4.82249578 C7.11393488,2.38874291 6.32583757,0.38821091 3.55656246,0.38821091 C0.805916567,0.38821091 0,2.38874291 0,4.82249578 M5.48347252,4.82249578 C5.48347252,6.96127266 5.06309996,8.09134417 3.55656246,8.09134417 C2.06784422,8.09134417 1.62965239,6.96127266 1.62965239,4.82249578 C1.62965239,2.68452265 2.06784422,1.55364739 3.55656246,1.55364739 C5.06309996,1.55364739 5.48347252,2.68452265 5.48347252,4.82249578" id="path8116"></path>
                </g>
                <g id="g8118" transform="translate(27.092872, 43.426705) scale(-1, 1) rotate(-180.000000) translate(-27.092872, -43.426705) translate(24.092872, 37.426705)" fill="#004F7D" fill-rule="nonzero">
                    <path d="M2.4298992,9.64499156 C2.2201179,9.64499156 2.11482227,9.69643151 1.90504097,9.9407713 L0.502989134,11.5924761 C0.432522057,11.6800848 0.432522057,11.7845722 0.432522057,11.8544984 L1.13395296,11.8544984 C1.36155352,11.8544984 1.46684915,11.8183297 1.69444971,11.5924761 L2.63968049,10.7228194 L3.60435047,11.5924761 C3.83195103,11.8183297 3.93724666,11.8544984 4.16484722,11.8544984 L4.86546816,11.8544984 C4.86546816,11.7845722 4.86546816,11.6800848 4.79500108,11.5924761 L3.39294924,9.9407713 C3.18316795,9.69643151 3.07868228,9.64499156 2.86890098,9.64499156 L2.4298992,9.64499156 Z M0.712770431,0.204152321 L0.712770431,8.89750471 L1.5016777,8.89750471 C2.0273459,8.89750471 2.25575642,8.48116258 2.29058498,7.81967691 C2.97338665,8.72389486 3.88459885,8.98511339 4.55120119,8.98511339 C4.84845886,8.98511339 5.16353579,8.91599095 5.16353579,8.54948127 L5.16353579,7.43789599 L4.72615394,7.43789599 C3.44640703,7.43789599 2.79924387,7.12363001 2.29058498,6.70728788 L2.29058498,0.204152321 L0.712770431,0.204152321 Z" id="path8120"></path>
                </g>
                <g id="g8122" transform="translate(30.948929, 43.504362) scale(-1, 1) rotate(-180.000000) translate(-30.948929, -43.504362) translate(29.948929, 37.004362)" fill="#004F7D" fill-rule="nonzero">
                    <path d="M1.6199328,10.4487409 L0.0421182527,10.4487409 L0.0421182527,11.4397637 C0.0421182527,11.961397 0.235700222,12.2579805 0.761368415,12.2579805 L1.6199328,12.2579805 L1.6199328,10.4487409 Z M0.0421182527,9.47540046 L0.883673341,9.47540046 C1.42635083,9.47540046 1.6199328,9.18042446 1.6199328,8.65718367 L1.6199328,0.782048066 L0.0421182527,0.782048066 L0.0421182527,9.47540046 Z" id="path8124"></path>
                </g>
                <g id="g8126" transform="translate(35.217078, 43.870121) scale(-1, 1) rotate(-180.000000) translate(-35.217078, -43.870121) translate(32.217078, 38.370121)" fill="#004F7D">
                    <path d="M3.23986559,8.84124226 L5.1319471,8.84124226 L5.1319471,7.67660953 L3.23986559,7.67660953 L3.23986559,2.37347167 C3.23986559,1.62518108 3.32734197,1.34708382 3.88864868,1.34708382 L5.1319471,1.34708382 L5.1319471,0.946816671 C5.1319471,0.269256014 4.50098328,0.113328651 3.6254096,0.113328651 C1.83781376,0.113328651 1.66367098,1.08666905 1.66367098,2.37347167 L1.66367098,7.67660953 L0.559686782,7.67660953 L0.559686782,8.54546252 L1.66367098,8.84124226 L2.22335776,10.2317285 C2.39831051,10.5982382 2.5214254,10.7533618 2.83731229,10.7533618 L3.23986559,10.7533618 L3.23986559,8.84124226 Z" id="path8128"></path>
                </g>
                <g id="g8130" transform="translate(41.290295, 44.682542) scale(-1, 1) rotate(-180.000000) translate(-41.290295, -44.682542) translate(37.790295, 39.682542)" fill="#004F7D" fill-rule="nonzero">
                    <path d="M6.47973119,1.60749859 L6.47973119,1.20803519 C6.47973119,0.529670786 5.55069973,0.372939674 3.62378967,0.372939674 C0.890153072,0.372939674 0.0494079503,2.37266792 0.0494079503,4.80642079 C0.0494079503,7.24178116 0.943610854,9.24070566 3.60516044,9.24070566 C5.76048103,9.24070566 6.88228449,7.91934182 6.88228449,6.00722224 C6.88228449,5.60615134 6.88228449,5.24124916 6.79480812,4.40695739 L1.69525967,4.40695739 C1.69525967,2.39035041 2.37887131,1.60749859 3.79874241,1.60749859 L6.47973119,1.60749859 Z M5.27045136,5.4847852 C5.28746065,5.64071256 5.28746065,5.98873601 5.28746065,6.19851457 C5.28746065,7.0320026 4.95456446,8.07526918 3.62378967,8.07526918 C2.41450983,8.07526918 1.76572675,7.31170735 1.69525967,5.4847852 L5.27045136,5.4847852 Z" id="path8132"></path>
                </g>
                <g id="g8134" transform="translate(47.064749, 43.222553) scale(-1, 1) rotate(-180.000000) translate(-47.064749, -43.222553) translate(46.064749, 37.222553)" fill="#004F7D">
                    <path d="M1.6199328,0 L0.0429282191,0 L0.0429282191,10.6585194 C0.0429282191,11.179349 0.235700222,11.4759325 0.761368415,11.4759325 L1.6199328,11.4759325 L1.6199328,0 Z" id="path8136"></path>
                </g>
                <g id="g8138" transform="translate(53.111187, 44.722552) scale(-1, 1) rotate(-180.000000) translate(-53.111187, -44.722552) translate(49.611187, 40.222552)" fill="#004F7D">
                    <path d="M0,0 L0,8.69335239 L0.788097306,8.69335239 C1.34859405,8.69335239 1.57700458,8.39757265 1.57700458,7.98042677 L1.57700458,7.68464702 C2.29463481,8.48518132 3.20665697,8.78096106 4.02958283,8.78096106 C5.72889234,8.78096106 6.57044743,7.73769448 6.57044743,6.12055089 L6.57044743,0 L5.01126211,0 L5.01126211,6.05142845 C5.01126211,7.07701256 4.41512684,7.51103718 3.41643827,7.51103718 C2.75064589,7.51103718 2.06784422,7.19918245 1.57700458,6.78123281 L1.57700458,0 L0,0 Z" id="path8140"></path>
                </g>
                <g id="g8142" transform="translate(60.972000, 45.026302) scale(-1, 1) rotate(-180.000000) translate(-60.972000, -45.026302) translate(56.972000, 40.026302)" fill="#004F7D" fill-rule="nonzero">
                    <path d="M6.47973119,0.803749297 C5.91923444,0.803749297 5.70783321,1.09952904 5.70783321,1.53274991 L5.70783321,1.81245466 C4.99020298,1.01272411 4.02634297,0.716944372 3.25606492,0.716944372 C1.67825038,0.716944372 0.697381069,1.67260229 0.697381069,3.13381851 C0.697381069,5.32483909 3.00983514,5.8810336 5.70783321,6.00239975 L5.70783321,6.81981278 C5.70783321,8.00293175 4.90272661,8.33246896 3.83357097,8.33246896 L1.31052563,8.33246896 L1.31052563,8.78417606 C1.31052563,9.55014914 2.22173783,9.58471036 4.06117152,9.58471036 C6.07717789,9.58471036 7.2678285,8.71505362 7.2678285,6.88973897 L7.2678285,0.803749297 L6.47973119,0.803749297 Z M5.70783321,5.01057311 C3.30709281,4.95913316 2.34404276,4.43749987 2.34404276,3.32511084 C2.34404276,2.36864918 3.02684443,2.02142948 3.92104734,2.02142948 C4.58602975,2.02142948 5.2526321,2.31640547 5.70783321,2.73435511 L5.70783321,5.01057311 Z" id="path8144"></path>
                </g>
                <g id="g8146" transform="translate(110.601064, 16.819087) scale(-1, 1) rotate(-180.000000) translate(-110.601064, -16.819087) translate(96.601064, 0.319087)" fill="#E41F25" fill-rule="nonzero">
                    <path d="M13.7694288,32.1499719 C14.8879924,32.1499719 15.8688617,31.7352372 16.6828779,30.9105904 C17.4985141,30.0891587 17.9148368,29.087687 17.9148368,27.956008 C17.9148368,26.7978053 17.5074237,25.8083899 16.6925975,24.9869581 C15.8777713,24.1631151 14.8879924,23.7507917 13.7694288,23.7507917 C12.6281861,23.7507917 11.6440769,24.1631151 10.8454501,24.9869581 C10.0330538,25.8083899 9.62645065,26.7978053 9.62645065,27.956008 C9.62645065,29.087687 10.0330538,30.0795137 10.8333006,30.899338 C11.6440769,31.7280035 12.6281861,32.1499719 13.7694288,32.1499719 Z M27.528328,15.5163802 L27.528328,18.0666767 C27.528328,20.4779246 25.5584897,22.4390729 23.1253506,22.4390729 L4.41026704,22.4390729 C1.97712798,22.4390729 0.00809966399,20.4779246 0.00809966399,18.0666767 L0.00809966399,8.4602651 L20.8866035,8.4602651 L20.8866035,7.00467512 L0.00809966399,7.00467512 L0.00809966399,4.45518235 C0.00809966399,2.04313071 1.97712798,0.0860011747 4.41026704,0.0860011747 L23.1253506,0.0860011747 C25.5584897,0.0860011747 27.528328,2.04313071 27.528328,4.45518235 L27.528328,14.0607902 L6.65225403,14.0607902 L6.65225403,15.5163802 L27.528328,15.5163802 Z" id="path8148"></path>
                </g>
                <polygon id="path8150" fill="#004F7D" points="140.571062 33.2137954 139.945768 33.2137954 139.945768 10.8800137 140.571062 10.8800137"></polygon>
                <g id="g8152" transform="translate(159.609635, 15.087039) scale(-1, 1) rotate(-180.000000) translate(-159.609635, -15.087039) translate(155.109635, 10.087039)" fill="#004F7D" fill-rule="nonzero">
                    <path d="M3.23986559,4.01874648 L5.47213299,4.01874648 L4.39811754,7.68786202 L4.32846043,7.68786202 L3.23986559,4.01874648 Z M5.05419033,9.26642564 C5.36116759,9.26642564 5.50048181,9.22543443 5.58471832,8.94814092 L8.01218762,0.667915665 C8.03972647,0.556998262 8.0534959,0.44608086 8.0534959,0.37695842 L6.88228449,0.37695842 C6.57449726,0.37695842 6.47730129,0.390622158 6.39387475,0.667915665 L5.76534083,2.82839377 L2.94665776,2.82839377 L2.3189338,0.667915665 C2.24927669,0.390622158 2.13750133,0.37695842 1.84429349,0.37695842 L0.672272111,0.37695842 C0.672272111,0.44608086 0.686851506,0.543334524 0.714390364,0.667915665 L3.17020848,8.94814092 C3.25444499,9.22543443 3.40752864,9.26642564 3.7145059,9.26642564 L5.05419033,9.26642564 Z" id="path8154"></path>
                </g>
                <g id="g8156" transform="translate(167.303328, 15.296664) scale(-1, 1) rotate(-180.000000) translate(-167.303328, -15.296664) translate(163.803328, 10.296664)" fill="#004F7D" fill-rule="nonzero">
                    <path d="M3.23986559,6.42999437 C2.69556817,6.42999437 2.23550726,6.20815957 1.85806292,5.91720232 L1.85806292,2.19343183 C2.23550726,1.90247458 2.69556817,1.68063978 3.23986559,1.68063978 C4.37057869,1.68063978 4.78852135,2.49724906 4.78852135,4.04848521 C4.78852135,5.58525386 4.37057869,6.42999437 3.23986559,6.42999437 M3.75581419,0.517614547 C2.93288833,0.517614547 2.27762551,0.933152933 1.85806292,1.3760188 L1.85806292,1.18231522 C1.85806292,0.849563006 1.66286102,0.586736986 1.14691242,0.586736986 L0.39364367,0.586736986 L0.39364367,9.03333834 C0.39364367,9.44807298 0.546727319,9.72536649 1.03513706,9.72536649 L1.85806292,9.72536649 L1.85806292,6.70648413 C2.27762551,7.16381748 2.93288833,7.57935587 3.75581419,7.57935587 C5.51425124,7.57935587 6.30963825,6.2218233 6.30963825,4.04848521 C6.30963825,1.86067962 5.51425124,0.517614547 3.75581419,0.517614547" id="path8158"></path>
                </g>
                <g id="g8160" transform="translate(174.167871, 16.489318) scale(-1, 1) rotate(-180.000000) translate(-174.167871, -16.489318) translate(170.667871, 12.489318)" fill="#004F7D" fill-rule="nonzero">
                    <path d="M4.85979839,4.82249578 C4.87356782,4.94707692 4.87356782,5.1962392 4.87356782,5.34895157 C4.87356782,5.97185727 4.60870881,6.73300786 3.54765283,6.73300786 C2.57164332,6.73300786 2.05488475,6.17922459 1.99899707,4.82249578 L4.85979839,4.82249578 Z M6.00428091,1.81808091 L6.00428091,1.42987 C6.00428091,0.862422995 5.23643277,0.710514378 3.54765283,0.710514378 C1.20361007,0.710514378 0.478690142,2.30274173 0.478690142,4.24058129 C0.478690142,6.17922459 1.24572832,7.77145195 3.5338834,7.77145195 C5.37574699,7.77145195 6.33879704,6.71934412 6.33879704,5.15524799 C6.33879704,4.80883204 6.33879704,4.54600602 6.26913993,3.85317413 L1.99899707,3.85317413 C1.99899707,2.37186417 2.55706392,1.81808091 3.71531587,1.81808091 L6.00428091,1.81808091 Z" id="path8162"></path>
                </g>
                <g id="g8164" transform="translate(180.842151, 15.951289) scale(-1, 1) rotate(-180.000000) translate(-180.842151, -15.951289) translate(177.842151, 11.951289)" fill="#004F7D">
                    <path d="M3.23986559,7.23374367 C4.8306396,7.23374367 5.40247588,7.06736756 5.40247588,6.48625682 L5.40247588,6.12617714 L3.37917982,6.12617714 C2.17961958,6.12617714 1.69120984,5.54426265 1.69120984,3.70287301 C1.69120984,1.84781963 2.17961958,1.27956888 3.37917982,1.27956888 L5.40247588,1.27956888 L5.40247588,0.905825457 C5.40247588,0.324714716 4.8306396,0.172002349 3.23986559,0.172002349 C0.853704584,0.172002349 0.170092944,1.76422971 0.170092944,3.70287301 C0.170092944,5.64151631 0.853704584,7.23374367 3.23986559,7.23374367" id="path8166"></path>
                </g>
                <g id="g8168" transform="translate(186.867172, 16.489318) scale(-1, 1) rotate(-180.000000) translate(-186.867172, -16.489318) translate(183.367172, 12.489318)" fill="#004F7D" fill-rule="nonzero">
                    <path d="M4.85979839,4.82249578 C4.87356782,4.94707692 4.87356782,5.1962392 4.87356782,5.34895157 C4.87356782,5.97185727 4.60870881,6.73300786 3.54765283,6.73300786 C2.57164332,6.73300786 2.05488475,6.17922459 1.99899707,4.82249578 L4.85979839,4.82249578 Z M6.00428091,1.81808091 L6.00428091,1.42987 C6.00428091,0.862422995 5.23643277,0.710514378 3.54765283,0.710514378 C1.20361007,0.710514378 0.478690142,2.30274173 0.478690142,4.24058129 C0.478690142,6.17922459 1.24572832,7.77145195 3.5338834,7.77145195 C5.37574699,7.77145195 6.33879704,6.71934412 6.33879704,5.15524799 C6.33879704,4.80883204 6.33879704,4.54600602 6.26913993,3.85317413 L1.99899707,3.85317413 C1.99899707,2.37186417 2.55706392,1.81808091 3.71531587,1.81808091 L6.00428091,1.81808091 Z" id="path8170"></path>
                </g>
                <g id="g8172" transform="translate(194.040967, 15.237346) scale(-1, 1) rotate(-180.000000) translate(-194.040967, -15.237346) translate(190.540967, 10.237346)" fill="#004F7D" fill-rule="nonzero">
                    <path d="M3.23986559,1.60749859 C3.78416301,1.60749859 4.25880332,1.82852965 4.62166827,2.11948689 L4.62166827,5.85852862 C4.25880332,6.14868212 3.78416301,6.37051692 3.23986559,6.37051692 C2.10996247,6.37051692 1.69120984,5.52577641 1.69120984,3.98900776 C1.69120984,2.43857537 2.10996247,1.60749859 3.23986559,1.60749859 Z M6.08689749,0.527259539 L5.31904934,0.527259539 C4.81687017,0.527259539 4.62166827,0.790085558 4.62166827,1.12283777 L4.62166827,1.31654135 C4.21668507,0.873675485 3.56061229,0.458137099 2.723917,0.458137099 C0.965479947,0.458137099 0.170092944,1.80120217 0.170092944,3.98900776 C0.170092944,6.16234586 0.965479947,7.51987842 2.723917,7.51987842 C3.56061229,7.51987842 4.21668507,7.10434003 4.62166827,6.64781043 L4.62166827,9.05664707 C4.62166827,9.38939928 4.80310074,9.66588904 5.31904934,9.66588904 L6.08689749,9.66588904 L6.08689749,0.527259539 Z" id="path8174"></path>
                </g>
                <g id="g8176" transform="translate(200.808236, 16.433218) scale(-1, 1) rotate(-180.000000) translate(-200.808236, -16.433218) translate(197.308236, 12.433218)" fill="#004F7D" fill-rule="nonzero">
                    <path d="M4.85979839,4.01874648 C2.94827769,3.99061526 2.2225478,3.61687183 2.2225478,2.80026255 C2.2225478,2.08010318 2.75226582,1.8309409 3.46422629,1.8309409 C3.98098485,1.8309409 4.51070287,2.02464448 4.85979839,2.32926546 L4.85979839,4.01874648 Z M5.55717946,0.723374367 C5.05500029,0.723374367 4.85979839,0.986200387 4.85979839,1.3189526 L4.85979839,1.51265618 C4.25961329,0.888946722 3.47799572,0.654251927 2.8227329,0.654251927 C1.4968179,0.654251927 0.673892044,1.41540251 0.673892044,2.59289523 C0.673892044,4.32336747 2.58541274,4.79436455 4.85979839,4.89081447 L4.85979839,5.47272896 C4.85979839,6.34479695 4.23207443,6.60842672 3.3386815,6.60842672 L1.18984064,6.60842672 L1.18984064,7.00949761 C1.18984064,7.67419828 2.0273459,7.71599325 3.57600165,7.71599325 C5.30608988,7.71599325 6.32502761,6.99583388 6.32502761,5.5418514 L6.32502761,0.723374367 L5.55717946,0.723374367 Z" id="path8178"></path>
                </g>
                <g id="g8180" transform="translate(159.586532, 30.407787) scale(-1, 1) rotate(-180.000000) translate(-159.586532, -30.407787) translate(156.086532, 25.407787)" fill="#004F7D" fill-rule="nonzero">
                    <path d="M3.23986559,8.03749297 C2.69556817,8.03749297 2.23550726,7.81565816 1.85806292,7.52470091 L1.85806292,3.80093042 C2.23550726,3.50997318 2.69556817,3.28813837 3.23986559,3.28813837 C4.37057869,3.28813837 4.78852135,4.10555141 4.78852135,5.6559838 C4.78852135,7.19275245 4.37057869,8.03749297 3.23986559,8.03749297 Z M1.85806292,0.117347397 L0.39364367,0.117347397 L0.39364367,9.11773202 L1.16068185,9.11773202 C1.67663045,9.11773202 1.85806292,8.84043851 1.85806292,8.5076863 L1.85806292,8.31398272 C2.27762551,8.77131607 2.93288833,9.18685446 3.75581419,9.18685446 C5.51425124,9.18685446 6.30963825,7.8293219 6.30963825,5.6559838 C6.30963825,3.46817821 5.51425124,2.12511314 3.75581419,2.12511314 C2.93288833,2.12511314 2.27762551,2.54065153 1.85806292,2.98351739 L1.85806292,0.117347397 Z" id="path8182"></path>
                </g>
                <g id="g8184" transform="translate(166.451081, 29.992949) scale(-1, 1) rotate(-180.000000) translate(-166.451081, -29.992949) translate(162.951081, 25.992949)" fill="#004F7D" fill-rule="nonzero">
                    <path d="M4.85979839,4.82249578 C4.87356782,4.94707692 4.87356782,5.1962392 4.87356782,5.34895157 C4.87356782,5.97185727 4.60870881,6.73300786 3.54765283,6.73300786 C2.57164332,6.73300786 2.05488475,6.17922459 1.99899707,4.82249578 L4.85979839,4.82249578 Z M6.00428091,1.81808091 L6.00428091,1.42987 C6.00428091,0.862422995 5.23643277,0.710514378 3.54765283,0.710514378 C1.20361007,0.710514378 0.478690142,2.30274173 0.478690142,4.24058129 C0.478690142,6.17922459 1.24572832,7.77145195 3.5338834,7.77145195 C5.37574699,7.77145195 6.33879704,6.71934412 6.33879704,5.15524799 C6.33879704,4.80883204 6.33879704,4.54600602 6.26913993,3.85317413 L1.99899707,3.85317413 C1.99899707,2.37186417 2.55706392,1.81808091 3.71531587,1.81808091 L6.00428091,1.81808091 Z" id="path8186"></path>
                </g>
                <g id="g8188" transform="translate(173.644142, 29.713558) scale(-1, 1) rotate(-180.000000) translate(-173.644142, -29.713558) translate(170.644142, 26.213558)" fill="#004F7D">
                    <path d="M0,0 L0,6.92349644 L0.76703818,6.92349644 C1.28298678,6.92349644 1.46522922,6.65986667 1.46522922,6.32791821 L1.46522922,6.11974714 C2.06460435,6.7434566 2.79033424,6.99261888 3.51606414,6.99261888 C4.96752392,6.99261888 5.66490499,6.11974714 5.66490499,4.84580451 L5.66490499,0 L4.19967578,0 L4.19967578,4.77668207 C4.19967578,5.5386364 3.71126604,5.84325739 2.93045843,5.84325739 C2.39993044,5.84325739 1.85563302,5.62142258 1.46522922,5.33046533 L1.46522922,0 L0,0 Z" id="path8190"></path>
                </g>
                <g id="g8192" transform="translate(180.699038, 28.492951) scale(-1, 1) rotate(-180.000000) translate(-180.699038, -28.492951) translate(177.199038, 22.992951)" fill="#004F7D" fill-rule="nonzero">
                    <path d="M4.85979839,4.82249578 C4.87356782,4.94707692 4.87356782,5.1962392 4.87356782,5.34895157 C4.87356782,5.97185727 4.60870881,6.73300786 3.54765283,6.73300786 C2.57164332,6.73300786 2.05488475,6.17922459 1.99899707,4.82249578 L4.85979839,4.82249578 Z M3.28279381,8.25611277 C3.10136134,8.25611277 3.00335541,8.31157148 2.83650233,8.49161132 L1.66448095,9.84834013 C1.59482384,9.91826632 1.59482384,10.0010525 1.59482384,10.0565112 L2.23631723,10.0565112 C2.43151913,10.0565112 2.51575563,10.0147162 2.71095754,9.84834013 L3.47799572,9.19810695 L4.25961329,9.84834013 C4.45481519,10.0147162 4.5390517,10.0565112 4.72048417,10.0565112 L5.36197756,10.0565112 C5.36197756,10.0010525 5.36197756,9.91826632 5.30608988,9.84834013 L4.12029907,8.49161132 C3.95263603,8.31157148 3.85544006,8.25611277 3.67400758,8.25611277 L3.28279381,8.25611277 Z M6.00428091,1.81808091 L6.00428091,1.42987 C6.00428091,0.862422995 5.23643277,0.710514378 3.54765283,0.710514378 C1.20361007,0.710514378 0.478690142,2.30274173 0.478690142,4.24058129 C0.478690142,6.17922459 1.24572832,7.77145195 3.5338834,7.77145195 C5.37574699,7.77145195 6.33879704,6.71934412 6.33879704,5.15524799 C6.33879704,4.80883204 6.33879704,4.54600602 6.26913993,3.85317413 L1.99899707,3.85317413 C1.99899707,2.37186417 2.55706392,1.81808091 3.71531587,1.81808091 L6.00428091,1.81808091 Z" id="path8194"></path>
                </g>
                <g id="g8196" transform="translate(186.828289, 29.758661) scale(-1, 1) rotate(-180.000000) translate(-186.828289, -29.758661) translate(183.828289, 25.758661)" fill="#004F7D">
                    <path d="M4.04983199,6.42999437 L0.603424967,6.42999437 L0.603424967,7.46843846 L5.84957733,7.46843846 L5.84957733,6.90018771 C5.84957733,6.63736169 5.79368965,6.40186315 5.65437543,6.2218233 L2.25008666,1.58338611 L5.96135269,1.58338611 L5.96135269,0.544942023 L0.435761923,0.544942023 L0.435761923,1.07139781 C0.435761923,1.32056009 0.506228999,1.52873116 0.64554322,1.70796726 L4.04983199,6.42999437 Z" id="path8198"></path>
                </g>
            </g>
        </g>
    </g>
</svg>